<svg width="1024" height="1024" viewBox="0 0 1024 1024" fill="none" xmlns="http://www.w3.org/2000/svg">
  <defs>
    <linearGradient id="pin" x1="512" y1="160" x2="512" y2="580" gradientUnits="userSpaceOnUse">
      <stop stop-color="#7BE7FF"/>
      <stop offset="0.55" stop-color="#3FA6FF"/>
      <stop offset="1" stop-color="#1E54DA"/>
    </linearGradient>
    <linearGradient id="base" x1="214" y1="610" x2="810" y2="840" gradientUnits="userSpaceOnUse">
      <stop stop-color="#2864E4"/>
      <stop offset="1" stop-color="#0F2F9D"/>
    </linearGradient>
    <linearGradient id="car" x1="340" y1="420" x2="680" y2="640" gradientUnits="userSpaceOnUse">
      <stop stop-color="#FFFFFF"/>
      <stop offset="1" stop-color="#DEEBFF"/>
    </linearGradient>
    <linearGradient id="rail" x1="230" y1="330" x2="230" y2="570" gradientUnits="userSpaceOnUse">
      <stop stop-color="#F7FCFF"/>
      <stop offset="1" stop-color="#C5E4FF"/>
    </linearGradient>
  </defs>

  <!-- Blue isometric base plate -->
  <path d="M214 608L512 744L810 608L512 476Z" fill="#EAF4FF"/>
  <path d="M246 640L512 820L778 640L512 500Z" fill="url(#base)"/>

  <!-- Signal waves -->
  <path d="M398 686C448 654 576 654 626 686" stroke="#69E6FF" stroke-width="20" stroke-linecap="round" fill="none"/>
  <path d="M434 722C470 700 554 700 590 722" stroke="#69E6FF" stroke-width="18" stroke-linecap="round" fill="none"/>
  <path d="M472 756C490 746 534 746 552 756" stroke="#69E6FF" stroke-width="16" stroke-linecap="round" fill="none"/>

  <!-- Side rails -->
  <path d="M300 330C266 330 240 356 240 390V544C240 562 254 576 272 576C290 576 304 562 304 544V406H374C392 406 406 392 406 374C406 356 392 342 374 342H300Z" fill="url(#rail)"/>
  <path d="M724 330C758 330 784 356 784 390V544C784 562 770 576 752 576C734 576 720 562 720 544V406H650C632 406 618 392 618 374C618 356 632 342 650 342H724Z" fill="url(#rail)"/>

  <!-- Car body -->
  <path d="M400 416H624L658 488H366L400 416Z" fill="#2B5ED9"/>
  <rect x="352" y="488" width="320" height="140" rx="26" fill="url(#car)"/>
  <circle cx="408" cy="536" r="24" fill="#1E54DA"/>
  <circle cx="616" cy="536" r="24" fill="#1E54DA"/>
  <rect x="468" y="540" width="88" height="10" rx="5" fill="#1E54DA"/>

  <!-- Pin -->
  <path d="M512 164C424 164 352 235 352 324C352 390 402 452 512 584C622 452 672 390 672 324C672 235 600 164 512 164Z" fill="url(#pin)"/>
  <circle cx="512" cy="308" r="84" fill="#F5FBFF"/>
  <path d="M484 258H530C562 258 584 281 584 312C584 341 562 362 530 362H520V408H484V258ZM520 331H530C542 331 548 324 548 313C548 301 542 294 530 294H520V331Z" fill="#1E54DA"/>
</svg>
